<svg xmlns="http://www.w3.org/2000/svg" xmlns:xlink="http://www.w3.org/1999/xlink" x="0" y="0" width="702" height="302" style="
        width:702px;
        height:302px;
        background: transparent;
        fill: none;
">
        
        
        <svg xmlns="http://www.w3.org/2000/svg" class="role-diagram-draw-area" style="overflow: visible;"><g class="shapes-region" style="stroke: black; fill: none;"><g class="composite-shape"><path class="real" d=" M190,105 C190,63.58 223.58,30 265,30 C306.42,30 340,63.58 340,105 C340,146.42 306.42,180 265,180 C223.58,180 190,146.42 190,105 Z" style="stroke-width: 1px; stroke: rgb(0, 0, 0); fill: none; fill-opacity: 1;"/></g><g class="composite-shape"><path class="real" d=" M290,105 C290,63.58 323.58,30 365,30 C406.42,30 440,63.58 440,105 C440,146.42 406.42,180 365,180 C323.58,180 290,146.42 290,105 Z" style="stroke-width: 1px; stroke: rgb(0, 0, 0); fill: none; fill-opacity: 1;"/></g><g class="composite-shape"><path class="real" d=" M240,195 C240,153.58 273.58,120 315,120 C356.42,120 390,153.58 390,195 C390,236.42 356.42,270 315,270 C273.58,270 240,236.42 240,195 Z" style="stroke-width: 1px; stroke: rgb(0, 0, 0); fill: none; fill-opacity: 1;"/></g><g/></g><g/><g/><g/></svg>
        <svg xmlns="http://www.w3.org/2000/svg" xmlns:xlink="http://www.w3.org/1999/xlink" width="700" height="300" style="width:700px;height:300px;font-family:Asana-Math, Asana;background:transparent;"><g><g><g><g transform="matrix(1,0,0,1,212,105.5)"><path transform="matrix(0.015,0,0,-0.015,0,0)" d="M32 0C55 1 98 3 134 3C165 3 217 1 249 0L249 31C199 31 174 56 174 82C174 85 175 95 176 97L222 228L469 228L522 75C523 71 525 65 525 61C525 31 469 31 442 31L442 0C478 3 548 3 586 3C629 3 675 2 717 0L717 31L699 31C639 31 625 38 614 71L398 696C393 709 391 716 375 716C359 716 356 710 351 696L144 98C126 47 86 32 32 31ZM233 259L345 584L458 259ZM782 0C817 1 868 3 895 3C921 3 973 1 1007 0L1007 31C940 31 929 31 929 76L929 260C929 364 1000 420 1064 420C1127 420 1138 366 1138 309L1138 76C1138 31 1127 31 1060 31L1060 0C1095 1 1146 3 1173 3C1199 3 1251 1 1285 0L1285 31C1233 31 1208 31 1207 61L1207 252C1207 338 1207 369 1176 405C1162 422 1129 442 1071 442C998 442 951 399 923 337L923 442L782 431L782 400C852 400 860 393 860 344L860 76C860 31 849 31 782 31ZM1347 95C1347 14 1444 -11 1507 -11C1573 -11 1619 29 1638 76C1642 36 1669 -6 1716 -6C1737 -6 1798 8 1798 89L1798 145L1773 145L1773 89C1773 31 1748 25 1737 25C1704 25 1700 70 1700 75L1700 275C1700 317 1700 356 1664 393C1625 432 1575 448 1527 448C1445 448 1376 401 1376 335C1376 305 1396 288 1422 288C1450 288 1468 308 1468 334C1468 346 1463 379 1417 380C1444 415 1493 426 1525 426C1574 426 1631 387 1631 298L1631 261C1580 258 1510 255 1447 225C1372 191 1347 139 1347 95ZM1424 96C1424 151 1466 234 1631 240L1631 140C1631 45 1559 11 1514 11C1465 11 1424 46 1424 96ZM1838 0C1871 1 1924 3 1949 3C1974 3 2023 1 2060 0L2060 31C1993 31 1982 31 1982 76L1982 694L1838 683L1838 652C1908 652 1916 645 1916 596L1916 76C1916 31 1905 31 1838 31ZM2101 -124C2101 -169 2143 -205 2193 -205C2256 -205 2297 -148 2321 -91L2497 336C2523 399 2574 400 2590 400L2590 431C2567 429 2538 428 2515 428C2497 428 2450 430 2428 431L2428 400C2459 399 2475 382 2475 357C2475 347 2474 345 2469 333L2368 87L2257 356C2253 366 2251 370 2251 374C2251 400 2288 400 2307 400L2307 431C2281 430 2215 428 2198 428C2171 428 2131 429 2101 431L2101 400C2149 400 2168 400 2182 365L2332 0C2327 -13 2313 -46 2307 -59C2285 -114 2257 -183 2193 -183C2188 -183 2165 -183 2146 -165C2177 -161 2185 -139 2185 -123C2185 -97 2166 -81 2143 -81C2123 -81 2101 -94 2101 -124ZM2642 13C2642 -4 2642 -11 2653 -11C2658 -11 2659 -10 2678 9C2680 11 2680 13 2698 32C2742 -10 2787 -11 2808 -11C2923 -11 2969 56 2969 128C2969 181 2939 211 2927 223C2894 255 2855 263 2813 271C2757 282 2690 295 2690 353C2690 388 2716 429 2802 429C2912 429 2917 339 2919 308C2920 299 2929 299 2931 299C2944 299 2944 304 2944 323L2944 424C2944 441 2944 448 2933 448C2928 448 2926 448 2913 436C2910 432 2900 423 2896 420C2858 448 2817 448 2802 448C2680 448 2642 381 2642 325C2642 290 2658 262 2685 240C2717 214 2745 208 2817 194C2839 190 2921 174 2921 102C2921 51 2886 11 2808 11C2724 11 2688 68 2669 153C2666 166 2665 170 2655 170C2642 170 2642 163 2642 145ZM3078 616C3078 589 3100 563 3131 563C3159 563 3184 584 3184 616C3184 648 3159 669 3131 669C3100 669 3078 642 3078 616ZM3036 0C3068 1 3122 3 3146 3C3181 3 3216 1 3250 0L3250 31C3184 31 3180 36 3180 75L3180 442L3040 431L3040 400C3105 400 3114 394 3114 345L3114 76C3114 31 3103 31 3036 31ZM3313 13C3313 -4 3313 -11 3324 -11C3329 -11 3330 -10 3349 9C3351 11 3351 13 3369 32C3413 -10 3458 -11 3479 -11C3594 -11 3640 56 3640 128C3640 181 3610 211 3598 223C3565 255 3526 263 3484 271C3428 282 3361 295 3361 353C3361 388 3387 429 3473 429C3583 429 3588 339 3590 308C3591 299 3600 299 3602 299C3615 299 3615 304 3615 323L3615 424C3615 441 3615 448 3604 448C3599 448 3597 448 3584 436C3581 432 3571 423 3567 420C3529 448 3488 448 3473 448C3351 448 3313 381 3313 325C3313 290 3329 262 3356 240C3388 214 3416 208 3488 194C3510 190 3592 174 3592 102C3592 51 3557 11 3479 11C3395 11 3359 68 3340 153C3337 166 3336 170 3326 170C3313 170 3313 163 3313 145Z" stroke="rgb(0,0,0)" stroke-opacity="1" stroke-width="8" fill="rgb(0,0,0)" fill-opacity="1"></path></g></g></g></g><g><g><g><g transform="matrix(1,0,0,1,364.79998779296875,96.5)"><path transform="matrix(0.015,0,0,-0.015,0,0)" d="M32 0C55 1 98 3 134 3C165 3 217 1 249 0L249 31C199 31 174 56 174 82C174 85 175 95 176 97L222 228L469 228L522 75C523 71 525 65 525 61C525 31 469 31 442 31L442 0C478 3 548 3 586 3C629 3 675 2 717 0L717 31L699 31C639 31 625 38 614 71L398 696C393 709 391 716 375 716C359 716 356 710 351 696L144 98C126 47 86 32 32 31ZM233 259L345 584L458 259ZM783 0C816 1 869 3 894 3C919 3 968 1 1005 0L1005 31C938 31 927 31 927 76L927 694L783 683L783 652C853 652 861 645 861 596L861 76C861 31 850 31 783 31ZM1055 -79C1055 -151 1154 -206 1276 -206C1394 -206 1498 -155 1498 -77C1498 -42 1484 9 1433 37C1380 65 1322 65 1261 65C1236 65 1193 65 1186 66C1154 70 1133 101 1133 133C1133 137 1133 160 1150 180C1189 152 1230 149 1249 149C1342 149 1411 218 1411 295C1411 332 1395 369 1370 392C1406 426 1442 431 1460 431C1462 431 1467 431 1470 430C1459 426 1454 415 1454 403C1454 386 1467 374 1483 374C1493 374 1512 381 1512 404C1512 421 1500 453 1461 453C1441 453 1397 447 1355 406C1313 439 1271 442 1249 442C1156 442 1087 373 1087 296C1087 252 1109 214 1134 193C1121 178 1103 145 1103 110C1103 79 1116 41 1147 21C1087 4 1055 -39 1055 -79ZM1107 -79C1107 -33 1145 4 1189 7L1248 7C1334 7 1446 7 1446 -79C1446 -133 1375 -183 1277 -183C1176 -183 1107 -132 1107 -79ZM1162 295C1162 322 1163 354 1178 379C1186 391 1209 419 1249 419C1336 419 1336 319 1336 296C1336 269 1335 237 1320 212C1312 200 1289 172 1249 172C1162 172 1162 272 1162 295ZM1555 220C1555 86 1660 -11 1775 -11C1897 -11 1942 100 1942 119C1942 129 1934 131 1929 131C1920 131 1918 125 1916 117C1881 14 1791 14 1781 14C1731 14 1691 44 1668 81C1638 129 1638 195 1638 231L1917 231C1939 231 1942 231 1942 252C1942 351 1888 448 1763 448C1647 448 1555 345 1555 220ZM1639 252C1645 401 1729 426 1763 426C1866 426 1876 291 1876 252ZM1999 652C2069 652 2077 645 2077 596L2077 0L2102 0C2103 1 2111 15 2138 62C2153 39 2195 -11 2269 -11C2388 -11 2492 87 2492 216C2492 343 2394 442 2280 442C2202 442 2159 395 2143 377L2143 694L1999 683ZM2146 114L2146 320C2146 339 2146 340 2157 356C2196 412 2251 420 2275 420C2320 420 2356 394 2380 356C2406 315 2409 258 2409 217C2409 180 2407 120 2378 75C2357 44 2319 11 2265 11C2220 11 2184 35 2160 72C2146 93 2146 96 2146 114ZM2554 0C2593 1 2640 3 2668 3C2708 3 2755 3 2795 0L2795 31L2774 31C2700 31 2698 42 2698 78L2698 232C2698 331 2740 420 2816 420C2823 420 2825 420 2827 419C2824 418 2804 406 2804 380C2804 352 2825 337 2847 337C2865 337 2890 349 2890 381C2890 413 2859 442 2816 442C2743 442 2707 375 2693 332L2693 442L2554 431L2554 400C2624 400 2632 393 2632 344L2632 76C2632 31 2621 31 2554 31ZM2959 95C2959 14 3056 -11 3119 -11C3185 -11 3231 29 3250 76C3254 36 3281 -6 3328 -6C3349 -6 3410 8 3410 89L3410 145L3385 145L3385 89C3385 31 3360 25 3349 25C3316 25 3312 70 3312 75L3312 275C3312 317 3312 356 3276 393C3237 432 3187 448 3139 448C3057 448 2988 401 2988 335C2988 305 3008 288 3034 288C3062 288 3080 308 3080 334C3080 346 3075 379 3029 380C3056 415 3105 426 3137 426C3186 426 3243 387 3243 298L3243 261C3192 258 3122 255 3059 225C2984 191 2959 139 2959 95ZM3036 96C3036 151 3078 234 3243 240L3243 140C3243 45 3171 11 3126 11C3077 11 3036 46 3036 96Z" stroke="rgb(0,0,0)" stroke-opacity="1" stroke-width="8" fill="rgb(0,0,0)" fill-opacity="1"></path></g></g></g><g><g><g transform="matrix(1,0,0,1,352,118)"><path transform="matrix(0.0105,0,0,-0.0105,0,0)" d="M99 250C99 172 110 51 165 -62C225 -185 311 -250 321 -250C327 -250 331 -247 331 -240C331 -237 331 -235 314 -218C189 -92 157 97 157 250C157 424 195 598 318 723C331 735 331 737 331 740C331 747 327 750 321 750C311 750 221 682 162 555C111 445 99 334 99 250ZM421 0L942 0L970 258L945 258C934 156 920 31 744 31L662 31C615 31 613 38 613 71L613 604C613 638 613 652 708 652L741 652L741 683C705 680 614 680 573 680C534 680 456 680 421 683L421 652L445 652C522 652 524 641 524 605L524 78C524 42 522 31 445 31L421 31ZM1088 616C1088 589 1110 563 1141 563C1169 563 1194 584 1194 616C1194 648 1169 669 1141 669C1110 669 1088 642 1088 616ZM1046 0C1078 1 1132 3 1156 3C1191 3 1226 1 1260 0L1260 31C1194 31 1190 36 1190 75L1190 442L1050 431L1050 400C1115 400 1124 394 1124 345L1124 76C1124 31 1113 31 1046 31ZM1322 0C1357 1 1408 3 1435 3C1461 3 1513 1 1547 0L1547 31C1480 31 1469 31 1469 76L1469 260C1469 364 1540 420 1604 420C1667 420 1678 366 1678 309L1678 76C1678 31 1667 31 1600 31L1600 0C1635 1 1686 3 1713 3C1739 3 1791 1 1825 0L1825 31C1773 31 1748 31 1747 61L1747 252C1747 338 1747 369 1716 405C1702 422 1669 442 1611 442C1538 442 1491 399 1463 337L1463 442L1322 431L1322 400C1392 400 1400 393 1400 344L1400 76C1400 31 1389 31 1322 31ZM1873 220C1873 86 1978 -11 2093 -11C2215 -11 2260 100 2260 119C2260 129 2252 131 2247 131C2238 131 2236 125 2234 117C2199 14 2109 14 2099 14C2049 14 2009 44 1986 81C1956 129 1956 195 1956 231L2235 231C2257 231 2260 231 2260 252C2260 351 2206 448 2081 448C1965 448 1873 345 1873 220ZM1957 252C1963 401 2047 426 2081 426C2184 426 2194 291 2194 252ZM2331 95C2331 14 2428 -11 2491 -11C2557 -11 2603 29 2622 76C2626 36 2653 -6 2700 -6C2721 -6 2782 8 2782 89L2782 145L2757 145L2757 89C2757 31 2732 25 2721 25C2688 25 2684 70 2684 75L2684 275C2684 317 2684 356 2648 393C2609 432 2559 448 2511 448C2429 448 2360 401 2360 335C2360 305 2380 288 2406 288C2434 288 2452 308 2452 334C2452 346 2447 379 2401 380C2428 415 2477 426 2509 426C2558 426 2615 387 2615 298L2615 261C2564 258 2494 255 2431 225C2356 191 2331 139 2331 95ZM2408 96C2408 151 2450 234 2615 240L2615 140C2615 45 2543 11 2498 11C2449 11 2408 46 2408 96ZM2817 0C2856 1 2903 3 2931 3C2971 3 3018 3 3058 0L3058 31L3037 31C2963 31 2961 42 2961 78L2961 232C2961 331 3003 420 3079 420C3086 420 3088 420 3090 419C3087 418 3067 406 3067 380C3067 352 3088 337 3110 337C3128 337 3153 349 3153 381C3153 413 3122 442 3079 442C3006 442 2970 375 2956 332L2956 442L2817 431L2817 400C2887 400 2895 393 2895 344L2895 76C2895 31 2884 31 2817 31ZM3545 0C3568 1 3611 3 3647 3C3678 3 3730 1 3762 0L3762 31C3712 31 3687 56 3687 82C3687 85 3688 95 3689 97L3735 228L3982 228L4035 75C4036 71 4038 65 4038 61C4038 31 3982 31 3955 31L3955 0C3991 3 4061 3 4099 3C4142 3 4188 2 4230 0L4230 31L4212 31C4152 31 4138 38 4127 71L3911 696C3906 709 3904 716 3888 716C3872 716 3869 710 3864 696L3657 98C3639 47 3599 32 3545 31ZM3746 259L3858 584L3971 259ZM4296 0C4329 1 4382 3 4407 3C4432 3 4481 1 4518 0L4518 31C4451 31 4440 31 4440 76L4440 694L4296 683L4296 652C4366 652 4374 645 4374 596L4374 76C4374 31 4363 31 4296 31ZM4568 -79C4568 -151 4667 -206 4789 -206C4907 -206 5011 -155 5011 -77C5011 -42 4997 9 4946 37C4893 65 4835 65 4774 65C4749 65 4706 65 4699 66C4667 70 4646 101 4646 133C4646 137 4646 160 4663 180C4702 152 4743 149 4762 149C4855 149 4924 218 4924 295C4924 332 4908 369 4883 392C4919 426 4955 431 4973 431C4975 431 4980 431 4983 430C4972 426 4967 415 4967 403C4967 386 4980 374 4996 374C5006 374 5025 381 5025 404C5025 421 5013 453 4974 453C4954 453 4910 447 4868 406C4826 439 4784 442 4762 442C4669 442 4600 373 4600 296C4600 252 4622 214 4647 193C4634 178 4616 145 4616 110C4616 79 4629 41 4660 21C4600 4 4568 -39 4568 -79ZM4620 -79C4620 -33 4658 4 4702 7L4761 7C4847 7 4959 7 4959 -79C4959 -133 4888 -183 4790 -183C4689 -183 4620 -132 4620 -79ZM4675 295C4675 322 4676 354 4691 379C4699 391 4722 419 4762 419C4849 419 4849 319 4849 296C4849 269 4848 237 4833 212C4825 200 4802 172 4762 172C4675 172 4675 272 4675 295ZM5068 220C5068 86 5173 -11 5288 -11C5410 -11 5455 100 5455 119C5455 129 5447 131 5442 131C5433 131 5431 125 5429 117C5394 14 5304 14 5294 14C5244 14 5204 44 5181 81C5151 129 5151 195 5151 231L5430 231C5452 231 5455 231 5455 252C5455 351 5401 448 5276 448C5160 448 5068 345 5068 220ZM5152 252C5158 401 5242 426 5276 426C5379 426 5389 291 5389 252ZM5512 652C5582 652 5590 645 5590 596L5590 0L5615 0C5616 1 5624 15 5651 62C5666 39 5708 -11 5782 -11C5901 -11 6005 87 6005 216C6005 343 5907 442 5793 442C5715 442 5672 395 5656 377L5656 694L5512 683ZM5659 114L5659 320C5659 339 5659 340 5670 356C5709 412 5764 420 5788 420C5833 420 5869 394 5893 356C5919 315 5922 258 5922 217C5922 180 5920 120 5891 75C5870 44 5832 11 5778 11C5733 11 5697 35 5673 72C5659 93 5659 96 5659 114ZM6067 0C6106 1 6153 3 6181 3C6221 3 6268 3 6308 0L6308 31L6287 31C6213 31 6211 42 6211 78L6211 232C6211 331 6253 420 6329 420C6336 420 6338 420 6340 419C6337 418 6317 406 6317 380C6317 352 6338 337 6360 337C6378 337 6403 349 6403 381C6403 413 6372 442 6329 442C6256 442 6220 375 6206 332L6206 442L6067 431L6067 400C6137 400 6145 393 6145 344L6145 76C6145 31 6134 31 6067 31ZM6472 95C6472 14 6569 -11 6632 -11C6698 -11 6744 29 6763 76C6767 36 6794 -6 6841 -6C6862 -6 6923 8 6923 89L6923 145L6898 145L6898 89C6898 31 6873 25 6862 25C6829 25 6825 70 6825 75L6825 275C6825 317 6825 356 6789 393C6750 432 6700 448 6652 448C6570 448 6501 401 6501 335C6501 305 6521 288 6547 288C6575 288 6593 308 6593 334C6593 346 6588 379 6542 380C6569 415 6618 426 6650 426C6699 426 6756 387 6756 298L6756 261C6705 258 6635 255 6572 225C6497 191 6472 139 6472 95ZM6549 96C6549 151 6591 234 6756 240L6756 140C6756 45 6684 11 6639 11C6590 11 6549 46 6549 96ZM6987 -240C6987 -246 6991 -250 6997 -250C7007 -250 7097 -182 7156 -55C7207 55 7219 166 7219 250C7219 328 7208 449 7153 562C7093 685 7007 750 6997 750C6991 750 6987 746 6987 740C6987 737 6987 735 7006 717C7104 618 7161 459 7161 250C7161 79 7124 -97 7000 -223C6987 -235 6987 -237 6987 -240Z" stroke="rgb(0,0,0)" stroke-opacity="1" stroke-width="8" fill="rgb(0,0,0)" fill-opacity="1"></path></g></g></g></g><g><g><g><g transform="matrix(1,0,0,1,282,215.5)"><path transform="matrix(0.015,0,0,-0.015,0,0)" d="M56 342C56 137 216 -22 406 -22C479 -22 559 4 593 63C606 41 646 1 657 1C666 1 666 9 666 24L666 198C666 237 670 242 735 242L735 273C698 272 643 270 613 270C573 270 488 270 452 273L452 242L484 242C574 242 577 231 577 194L577 130C577 18 450 9 422 9C357 9 159 44 159 342C159 641 356 674 416 674C523 674 614 584 634 437C636 423 636 420 650 420C666 420 666 423 666 444L666 681C666 698 666 705 655 705C651 705 647 705 639 693L589 619C557 651 503 705 404 705C218 705 56 547 56 342ZM812 220C812 86 917 -11 1032 -11C1154 -11 1199 100 1199 119C1199 129 1191 131 1186 131C1177 131 1175 125 1173 117C1138 14 1048 14 1038 14C988 14 948 44 925 81C895 129 895 195 895 231L1174 231C1196 231 1199 231 1199 252C1199 351 1145 448 1020 448C904 448 812 345 812 220ZM896 252C902 401 986 426 1020 426C1123 426 1133 291 1133 252ZM1256 214C1256 85 1360 -11 1477 -11C1598 -11 1699 87 1699 214C1699 342 1599 448 1478 448C1353 448 1256 339 1256 214ZM1339 222C1339 261 1339 315 1363 359C1390 405 1437 426 1477 426C1521 426 1564 404 1590 361C1616 318 1616 260 1616 222C1616 186 1616 132 1594 88C1572 43 1528 14 1478 14C1435 14 1391 35 1364 81C1339 125 1339 186 1339 222ZM1760 0C1795 1 1846 3 1873 3C1899 3 1951 1 1985 0L1985 31C1918 31 1907 31 1907 76L1907 260C1907 364 1978 420 2042 420C2105 420 2116 366 2116 309L2116 76C2116 31 2105 31 2038 31L2038 0C2073 1 2124 3 2151 3C2177 3 2229 1 2263 0L2263 31C2196 31 2185 31 2185 76L2185 260C2185 364 2256 420 2320 420C2383 420 2394 366 2394 309L2394 76C2394 31 2383 31 2316 31L2316 0C2351 1 2402 3 2429 3C2455 3 2507 1 2541 0L2541 31C2489 31 2464 31 2463 61L2463 252C2463 338 2463 369 2432 405C2418 422 2385 442 2327 442C2243 442 2199 382 2182 344C2168 431 2094 442 2049 442C1976 442 1929 399 1901 337L1901 442L1760 431L1760 400C1830 400 1838 393 1838 344L1838 76C1838 31 1827 31 1760 31ZM2589 220C2589 86 2694 -11 2809 -11C2931 -11 2976 100 2976 119C2976 129 2968 131 2963 131C2954 131 2952 125 2950 117C2915 14 2825 14 2815 14C2765 14 2725 44 2702 81C2672 129 2672 195 2672 231L2951 231C2973 231 2976 231 2976 252C2976 351 2922 448 2797 448C2681 448 2589 345 2589 220ZM2673 252C2679 401 2763 426 2797 426C2900 426 2910 291 2910 252ZM3024 400L3109 400L3109 124C3109 1 3202 -11 3238 -11C3309 -11 3337 60 3337 124L3337 181L3312 181L3312 126C3312 52 3282 14 3245 14C3178 14 3178 105 3178 122L3178 400L3321 400L3321 431L3178 431L3178 615L3153 615C3152 533 3122 426 3024 422ZM3421 0C3460 1 3507 3 3535 3C3575 3 3622 3 3662 0L3662 31L3641 31C3567 31 3565 42 3565 78L3565 232C3565 331 3607 420 3683 420C3690 420 3692 420 3694 419C3691 418 3671 406 3671 380C3671 352 3692 337 3714 337C3732 337 3757 349 3757 381C3757 413 3726 442 3683 442C3610 442 3574 375 3560 332L3560 442L3421 431L3421 400C3491 400 3499 393 3499 344L3499 76C3499 31 3488 31 3421 31ZM3803 -124C3803 -169 3845 -205 3895 -205C3958 -205 3999 -148 4023 -91L4199 336C4225 399 4276 400 4292 400L4292 431C4269 429 4240 428 4217 428C4199 428 4152 430 4130 431L4130 400C4161 399 4177 382 4177 357C4177 347 4176 345 4171 333L4070 87L3959 356C3955 366 3953 370 3953 374C3953 400 3990 400 4009 400L4009 431C3983 430 3917 428 3900 428C3873 428 3833 429 3803 431L3803 400C3851 400 3870 400 3884 365L4034 0C4029 -13 4015 -46 4009 -59C3987 -114 3959 -183 3895 -183C3890 -183 3867 -183 3848 -165C3879 -161 3887 -139 3887 -123C3887 -97 3868 -81 3845 -81C3825 -81 3803 -94 3803 -124Z" stroke="rgb(0,0,0)" stroke-opacity="1" stroke-width="8" fill="rgb(0,0,0)" fill-opacity="1"></path></g></g></g></g><g><g><g><g transform="matrix(1,0,0,1,253.5,160.75)"><path transform="matrix(0.0075,0,0,-0.0075,0,0)" d="M56 342C56 135 218 -22 404 -22C567 -22 665 117 665 233C665 243 665 250 652 250C641 250 641 244 640 234C632 91 525 9 416 9C355 9 159 43 159 341C159 640 354 674 415 674C524 674 613 583 633 437C635 423 635 420 649 420C665 420 665 423 665 444L665 681C665 698 665 705 654 705C650 705 646 705 638 693L588 619C551 655 500 705 404 705C217 705 56 546 56 342ZM759 0C794 1 843 3 876 3C909 3 958 1 993 0L993 31C890 31 890 78 890 105L890 644L891 644L1132 22C1137 9 1142 0 1152 0C1163 0 1166 8 1170 19L1416 652L1417 652L1417 78C1417 42 1415 31 1338 31L1314 31L1314 0C1351 3 1419 3 1458 3C1497 3 1564 3 1601 0L1601 31L1577 31C1500 31 1498 42 1498 78L1498 605C1498 641 1500 652 1577 652L1601 652L1601 683L1432 683C1406 683 1406 682 1399 664L1180 101L963 661C954 683 951 683 928 683L759 683L759 652L783 652C860 652 862 641 862 605L862 105C862 78 862 31 759 31ZM1724 53C1724 27 1741 0 1777 0C1793 0 1805 6 1815 14L1817 16C1818 16 1819 15 1819 1C1819 -63 1791 -124 1747 -171C1741 -177 1740 -178 1740 -182C1740 -189 1745 -193 1750 -193C1762 -193 1841 -114 1841 1C1841 65 1817 106 1777 106C1742 106 1724 79 1724 53ZM2281 0L2858 0L2900 258L2875 258C2850 104 2827 31 2655 31L2522 31C2475 31 2473 38 2473 71L2473 338L2563 338C2660 338 2671 306 2671 221L2696 221L2696 486L2671 486C2671 400 2660 369 2563 369L2473 369L2473 609C2473 642 2475 649 2522 649L2651 649C2804 649 2831 594 2847 455L2872 455L2844 680L2281 680L2281 649L2305 649C2382 649 2384 638 2384 602L2384 78C2384 42 2382 31 2305 31L2281 31ZM2960 0C2995 1 3046 3 3073 3C3099 3 3151 1 3185 0L3185 31C3118 31 3107 31 3107 76L3107 260C3107 364 3178 420 3242 420C3305 420 3316 366 3316 309L3316 76C3316 31 3305 31 3238 31L3238 0C3273 1 3324 3 3351 3C3377 3 3429 1 3463 0L3463 31C3411 31 3386 31 3385 61L3385 252C3385 338 3385 369 3354 405C3340 422 3307 442 3249 442C3176 442 3129 399 3101 337L3101 442L2960 431L2960 400C3030 400 3038 393 3038 344L3038 76C3038 31 3027 31 2960 31ZM3520 0C3555 1 3604 3 3637 3C3670 3 3719 1 3754 0L3754 31C3651 31 3651 78 3651 105L3651 644L3652 644L3893 22C3898 9 3903 0 3913 0C3924 0 3927 8 3931 19L4177 652L4178 652L4178 78C4178 42 4176 31 4099 31L4075 31L4075 0C4112 3 4180 3 4219 3C4258 3 4325 3 4362 0L4362 31L4338 31C4261 31 4259 42 4259 78L4259 605C4259 641 4261 652 4338 652L4362 652L4362 683L4193 683C4167 683 4167 682 4160 664L3941 101L3724 661C3715 683 3712 683 3689 683L3520 683L3520 652L3544 652C3621 652 3623 641 3623 605L3623 105C3623 78 3623 31 3520 31ZM4485 53C4485 27 4502 0 4538 0C4554 0 4566 6 4576 14L4578 16C4579 16 4580 15 4580 1C4580 -63 4552 -124 4508 -171C4502 -177 4501 -178 4501 -182C4501 -189 4506 -193 4511 -193C4523 -193 4602 -114 4602 1C4602 65 4578 106 4538 106C4503 106 4485 79 4485 53ZM5065 342C5065 137 5225 -22 5415 -22C5488 -22 5568 4 5602 63C5615 41 5655 1 5666 1C5675 1 5675 9 5675 24L5675 198C5675 237 5679 242 5744 242L5744 273C5707 272 5652 270 5622 270C5582 270 5497 270 5461 273L5461 242L5493 242C5583 242 5586 231 5586 194L5586 130C5586 18 5459 9 5431 9C5366 9 5168 44 5168 342C5168 641 5365 674 5425 674C5532 674 5623 584 5643 437C5645 423 5645 420 5659 420C5675 420 5675 423 5675 444L5675 681C5675 698 5675 705 5664 705C5660 705 5656 705 5648 693L5598 619C5566 651 5512 705 5413 705C5227 705 5065 547 5065 342ZM5828 0C5864 3 5935 3 5974 3C6013 3 6084 3 6120 0L6120 31L6096 31C6019 31 6017 42 6017 78L6017 331L6132 331C6148 331 6190 331 6225 297C6263 261 6263 230 6263 163C6263 98 6263 58 6304 20C6345 -16 6400 -22 6430 -22C6508 -22 6525 60 6525 88C6525 94 6525 105 6512 105C6501 105 6501 96 6500 89C6494 18 6459 0 6434 0C6385 0 6377 51 6363 144L6350 224C6332 288 6283 321 6228 340C6325 364 6403 425 6403 503C6403 599 6289 683 6142 683L5828 683L5828 652L5852 652C5929 652 5931 641 5931 605L5931 78C5931 42 5929 31 5852 31L5828 31ZM6017 353L6017 612C6017 635 6017 647 6039 650C6049 652 6078 652 6098 652C6188 652 6300 648 6300 503C6300 434 6276 353 6128 353Z" stroke="rgb(0,0,0)" stroke-opacity="1" stroke-width="8" fill="rgb(0,0,0)" fill-opacity="1"></path></g></g></g></g><g><g><g><g transform="matrix(1,0,0,1,308.5,99.75)"><path transform="matrix(0.0075,0,0,-0.0075,0,0)" d="M56 339C56 137 207 -22 389 -22C420 -22 455 -16 484 -7C499 -102 513 -194 606 -194C708 -194 727 -61 727 -10C727 0 727 11 716 11C707 11 706 3 705 -7C699 -61 657 -91 614 -91C567 -91 542 -57 518 7C636 60 721 188 721 339C721 543 570 705 388 705C209 705 56 545 56 339ZM156 339C156 599 296 680 388 680C485 680 621 594 621 339C621 261 609 120 503 42C481 98 449 148 390 148C339 148 308 105 308 64C308 37 321 18 322 16C268 36 156 109 156 339ZM330 64C330 93 351 126 390 126C444 126 466 84 477 26C443 7 411 3 389 3C338 3 330 49 330 64ZM814 0C849 1 898 3 931 3C964 3 1013 1 1048 0L1048 31C945 31 945 78 945 105L945 644L946 644L1187 22C1192 9 1197 0 1207 0C1218 0 1221 8 1225 19L1471 652L1472 652L1472 78C1472 42 1470 31 1393 31L1369 31L1369 0C1406 3 1474 3 1513 3C1552 3 1619 3 1656 0L1656 31L1632 31C1555 31 1553 42 1553 78L1553 605C1553 641 1555 652 1632 652L1656 652L1656 683L1487 683C1461 683 1461 682 1454 664L1235 101L1018 661C1009 683 1006 683 983 683L814 683L814 652L838 652C915 652 917 641 917 605L917 105C917 78 917 31 814 31Z" stroke="rgb(0,0,0)" stroke-opacity="1" stroke-width="8" fill="rgb(0,0,0)" fill-opacity="1"></path></g></g></g></g><g><g><g><g transform="matrix(1,0,0,1,334,158.75)"><path transform="matrix(0.0075,0,0,-0.0075,0,0)" d="M56 2C56 -15 56 -22 67 -22C74 -22 75 -20 82 -9C82 -8 85 -5 118 48C149 14 213 -22 302 -22C419 -22 499 76 499 186C499 286 433 368 349 388L221 419C159 434 120 488 120 546C120 616 174 677 252 677C419 677 441 513 447 468C448 462 448 456 459 456C472 456 472 461 472 480L472 681C472 698 472 705 461 705C454 705 453 704 446 692L411 635C381 664 340 705 251 705C140 705 56 617 56 511C56 428 109 355 187 328C198 324 249 312 319 295C346 288 376 281 404 244C425 218 435 185 435 152C435 81 385 9 301 9C272 9 196 14 143 63C85 117 82 181 81 217C80 227 72 227 69 227C56 227 56 220 56 202ZM574 400L659 400L659 124C659 1 752 -11 788 -11C859 -11 887 60 887 124L887 181L862 181L862 126C862 52 832 14 795 14C728 14 728 105 728 122L728 400L871 400L871 431L728 431L728 615L703 615C702 533 672 426 574 422ZM985 95C985 14 1082 -11 1145 -11C1211 -11 1257 29 1276 76C1280 36 1307 -6 1354 -6C1375 -6 1436 8 1436 89L1436 145L1411 145L1411 89C1411 31 1386 25 1375 25C1342 25 1338 70 1338 75L1338 275C1338 317 1338 356 1302 393C1263 432 1213 448 1165 448C1083 448 1014 401 1014 335C1014 305 1034 288 1060 288C1088 288 1106 308 1106 334C1106 346 1101 379 1055 380C1082 415 1131 426 1163 426C1212 426 1269 387 1269 298L1269 261C1218 258 1148 255 1085 225C1010 191 985 139 985 95ZM1062 96C1062 151 1104 234 1269 240L1269 140C1269 45 1197 11 1152 11C1103 11 1062 46 1062 96ZM1462 400L1547 400L1547 124C1547 1 1640 -11 1676 -11C1747 -11 1775 60 1775 124L1775 181L1750 181L1750 126C1750 52 1720 14 1683 14C1616 14 1616 105 1616 122L1616 400L1759 400L1759 431L1616 431L1616 615L1591 615C1590 533 1560 426 1462 422ZM2201 0C2236 1 2285 3 2318 3C2351 3 2400 1 2435 0L2435 31C2332 31 2332 78 2332 105L2332 644L2333 644L2574 22C2579 9 2584 0 2594 0C2605 0 2608 8 2612 19L2858 652L2859 652L2859 78C2859 42 2857 31 2780 31L2756 31L2756 0C2793 3 2861 3 2900 3C2939 3 3006 3 3043 0L3043 31L3019 31C2942 31 2940 42 2940 78L2940 605C2940 641 2942 652 3019 652L3043 652L3043 683L2874 683C2848 683 2848 682 2841 664L2622 101L2405 661C2396 683 2393 683 2370 683L2201 683L2201 652L2225 652C2302 652 2304 641 2304 605L2304 105C2304 78 2304 31 2201 31ZM3108 220C3108 86 3213 -11 3328 -11C3450 -11 3495 100 3495 119C3495 129 3487 131 3482 131C3473 131 3471 125 3469 117C3434 14 3344 14 3334 14C3284 14 3244 44 3221 81C3191 129 3191 195 3191 231L3470 231C3492 231 3495 231 3495 252C3495 351 3441 448 3316 448C3200 448 3108 345 3108 220ZM3192 252C3198 401 3282 426 3316 426C3419 426 3429 291 3429 252ZM3558 216C3558 88 3657 -11 3773 -11C3907 -11 3939 109 3939 119C3939 129 3929 129 3926 129C3917 129 3915 125 3913 119C3884 26 3819 14 3782 14C3729 14 3641 57 3641 218C3641 381 3723 423 3776 423C3785 423 3848 422 3883 386C3842 383 3836 353 3836 340C3836 314 3854 294 3882 294C3908 294 3928 311 3928 341C3928 409 3852 448 3775 448C3650 448 3558 340 3558 216ZM3972 0C4007 1 4058 3 4085 3C4111 3 4163 1 4197 0L4197 31C4130 31 4119 31 4119 76L4119 260C4119 364 4190 420 4254 420C4317 420 4328 366 4328 309L4328 76C4328 31 4317 31 4250 31L4250 0C4285 1 4336 3 4363 3C4389 3 4441 1 4475 0L4475 31C4423 31 4398 31 4397 61L4397 252C4397 338 4397 369 4366 405C4352 422 4319 442 4261 442C4177 442 4133 382 4117 346L4116 346L4116 694L3972 683L3972 652C4042 652 4050 645 4050 596L4050 76C4050 31 4039 31 3972 31Z" stroke="rgb(0,0,0)" stroke-opacity="1" stroke-width="8" fill="rgb(0,0,0)" fill-opacity="1"></path></g></g></g></g><g><g><g><g transform="matrix(1,0,0,1,301,135.75)"><path transform="matrix(0.0075,0,0,-0.0075,0,0)" d="M35 0L401 0C569 0 707 148 707 336C707 526 572 683 401 683L35 683L35 652L59 652C136 652 138 641 138 605L138 78C138 42 136 31 59 31L35 31ZM224 71L224 612C224 645 226 652 273 652L373 652C435 652 504 630 555 559C598 500 607 414 607 336C607 225 588 165 552 116C532 89 475 31 374 31L273 31C226 31 224 38 224 71ZM838 616C838 589 860 563 891 563C919 563 944 584 944 616C944 648 919 669 891 669C860 669 838 642 838 616ZM796 0C828 1 882 3 906 3C941 3 976 1 1010 0L1010 31C944 31 940 36 940 75L940 442L800 431L800 400C865 400 874 394 874 345L874 76C874 31 863 31 796 31ZM1067 0C1121 3 1153 3 1175 3C1213 3 1252 2 1290 0L1290 31L1282 31C1216 31 1212 39 1212 77L1212 400L1422 400L1422 77C1422 39 1418 31 1353 31L1345 31L1345 0C1379 2 1412 3 1457 3C1500 3 1544 2 1587 0L1587 31L1575 31C1498 31 1490 38 1490 78L1490 400L1604 400L1604 430L1487 430L1487 541C1487 645 1541 682 1578 682C1589 682 1600 679 1611 676C1599 670 1582 659 1582 634C1582 608 1602 590 1625 590C1649 590 1668 608 1668 634C1668 665 1639 705 1578 705C1534 705 1500 688 1472 663C1457 679 1429 705 1358 705C1266 705 1145 657 1145 541L1145 430L1067 430L1067 400L1145 400L1145 77C1145 39 1140 31 1075 31L1067 31ZM1209 430L1209 540C1209 654 1307 682 1358 682C1404 682 1427 668 1434 664C1418 658 1398 646 1398 620C1398 604 1406 590 1425 579C1422 560 1422 537 1422 515L1422 430ZM2012 342C2012 137 2172 -22 2362 -22C2435 -22 2515 4 2549 63C2562 41 2602 1 2613 1C2622 1 2622 9 2622 24L2622 198C2622 237 2626 242 2691 242L2691 273C2654 272 2599 270 2569 270C2529 270 2444 270 2408 273L2408 242L2440 242C2530 242 2533 231 2533 194L2533 130C2533 18 2406 9 2378 9C2313 9 2115 44 2115 342C2115 641 2312 674 2372 674C2479 674 2570 584 2590 437C2592 423 2592 420 2606 420C2622 420 2622 423 2622 444L2622 681C2622 698 2622 705 2611 705C2607 705 2603 705 2595 693L2545 619C2513 651 2459 705 2360 705C2174 705 2012 547 2012 342ZM2768 220C2768 86 2873 -11 2988 -11C3110 -11 3155 100 3155 119C3155 129 3147 131 3142 131C3133 131 3131 125 3129 117C3094 14 3004 14 2994 14C2944 14 2904 44 2881 81C2851 129 2851 195 2851 231L3130 231C3152 231 3155 231 3155 252C3155 351 3101 448 2976 448C2860 448 2768 345 2768 220ZM2852 252C2858 401 2942 426 2976 426C3079 426 3089 291 3089 252ZM3212 214C3212 85 3316 -11 3433 -11C3554 -11 3655 87 3655 214C3655 342 3555 448 3434 448C3309 448 3212 339 3212 214ZM3295 222C3295 261 3295 315 3319 359C3346 405 3393 426 3433 426C3477 426 3520 404 3546 361C3572 318 3572 260 3572 222C3572 186 3572 132 3550 88C3528 43 3484 14 3434 14C3391 14 3347 35 3320 81C3295 125 3295 186 3295 222Z" stroke="rgb(0,0,0)" stroke-opacity="1" stroke-width="8" fill="rgb(0,0,0)" fill-opacity="1"></path></g></g></g></g></svg>
</svg>
